# xmcd
#
# Track frame offsets:
#	150
#	13421
#	26390
#	41479
#	54857
#	70701
#	84678
#
# Disc length: 1331 seconds
#
# Revision: 0
# Processed by: cddbd v1.5.2PL0 Copyright (c) Steve Scherf et al.
# Submitted via: FairStars CD Ripper 1.90
#
DISCID=4f053107
DTITLE=Maggie Baugh - Heck of a Story [EP]
DYEAR=2015
DGENRE=Country
TTITLE0=Midnight Muddin
TTITLE1=Tears Next Door
TTITLE2=Heck of a Story
TTITLE3=Typical Cowboy
TTITLE4=Same Scars
TTITLE5=Falling Apart
TTITLE6=Country Boy
EXTD=
EXTT0=
EXTT1=
EXTT2=
EXTT3=
EXTT4=
EXTT5=
EXTT6=
PLAYORDER=
